<svg xmlns="http://www.w3.org/2000/svg" viewBox="0 0 220 220" width="220" height="220">
  
  <defs>
    <radialGradient id="cheekblush" cx="50%" cy="50%" r="50%">
      <stop offset="0%" stop-color="#FF8FA8" stop-opacity="0.8"></stop>
      <stop offset="100%" stop-color="#FF8FA8" stop-opacity="0"></stop>
    </radialGradient>
  </defs>
  
  <ellipse cx="110" cy="208" rx="60" ry="6" fill="#2B2233" opacity="0.08"></ellipse>

  
  <ellipse cx="110" cy="170" rx="62" ry="42" fill="#FFE4CC" stroke="#2B2233" stroke-width="2.5"></ellipse>
  <ellipse cx="110" cy="180" rx="38" ry="22" fill="#FFF8F0"></ellipse>

  
  <ellipse cx="74" cy="158" rx="13" ry="18" fill="#FFE4CC" stroke="#2B2233" stroke-width="2.3" transform="rotate(-12 74 158)"></ellipse>
  <ellipse cx="146" cy="158" rx="13" ry="18" fill="#FFE4CC" stroke="#2B2233" stroke-width="2.3" transform="rotate(12 146 158)"></ellipse>

  
  <g transform="translate(110 168)">
    <ellipse cx="0" cy="0" rx="14" ry="22" fill="#5A3D26" stroke="#2B2233" stroke-width="2.5"></ellipse>
    <ellipse cx="0" cy="-2" rx="9" ry="16" fill="#7A5238"></ellipse>
    <path d="M-6 -10 L0 -6 L6 -10 M-6 -2 L0 2 L6 -2 M-6 6 L0 10 L6 6" stroke="#FFE4CC" stroke-width="1.6" fill="none" stroke-linecap="round"></path>
  </g>

  
  <ellipse cx="68" cy="56" rx="14" ry="18" fill="#FFB890" stroke="#2B2233" stroke-width="2.5"></ellipse>
  <ellipse cx="152" cy="56" rx="14" ry="18" fill="#FFB890" stroke="#2B2233" stroke-width="2.5"></ellipse>
  <ellipse cx="68" cy="60" rx="7" ry="10" fill="#FFD6E0"></ellipse>
  <ellipse cx="152" cy="60" rx="7" ry="10" fill="#FFD6E0"></ellipse>

  
  <ellipse cx="110" cy="90" rx="58" ry="50" fill="#FFE4CC" stroke="#2B2233" stroke-width="2.5"></ellipse>

  
  <ellipse cx="68" cy="108" rx="18" ry="15" fill="#FFD8B8" stroke="#2B2233" stroke-width="2.3"></ellipse>
  <ellipse cx="152" cy="108" rx="18" ry="15" fill="#FFD8B8" stroke="#2B2233" stroke-width="2.3"></ellipse>
  
  <ellipse cx="68" cy="110" rx="9" ry="6" fill="url(#cheekblush)"></ellipse>
  <ellipse cx="152" cy="110" rx="9" ry="6" fill="url(#cheekblush)"></ellipse>

  
  <ellipse cx="92" cy="86" rx="4.5" ry="6" fill="#2B2233"></ellipse>
  <ellipse cx="128" cy="86" rx="4.5" ry="6" fill="#2B2233"></ellipse>
  <circle cx="94" cy="83" r="1.6" fill="#fff"></circle>
  <circle cx="130" cy="83" r="1.6" fill="#fff"></circle>

  
  <path d="M105 100 q5 4 10 0 q-5 6 -5 6 q0 0 -5 -6 z" fill="#FF6FA5" stroke="#2B2233" stroke-width="1.6" stroke-linejoin="round"></path>
  
  <path d="M105 110 q5 5 10 0 q5 5 0 0" fill="none" stroke="#2B2233" stroke-width="1.8" stroke-linecap="round"></path>

  
  <g stroke="#2B2233" stroke-width="1.2" stroke-linecap="round" opacity="0.6">
    <path d="M40 100 L58 102"></path>
    <path d="M40 108 L56 108"></path>
    <path d="M180 100 L162 102"></path>
    <path d="M180 108 L164 108"></path>
  </g>

  
  <path d="M186 36 L189 42 L195 45 L189 48 L186 54 L183 48 L177 45 L183 42 Z" fill="#FFC83D"></path>
  <path d="M28 100 L30 104 L34 106 L30 108 L28 112 L26 108 L22 106 L26 104 Z" fill="#A684FF"></path>
  <path d="M192 130 L194 134 L198 136 L194 138 L192 142 L190 138 L186 136 L190 134 Z" fill="#FF6FA5"></path>
</svg>